<svg width="50" height="51" viewBox="0 0 50 51" fill="none" xmlns="http://www.w3.org/2000/svg">
<rect opacity="0.1" y="0.181305" width="50" height="50" rx="10" fill="#5843BE"/>
<path fill-rule="evenodd" clip-rule="evenodd" d="M25.1999 31.5815C23.4351 31.5815 21.9998 30.1463 21.9998 28.3814C21.9998 26.6166 23.4351 25.1814 25.1999 25.1814C26.9648 25.1814 28.4 26.6166 28.4 28.3814C28.4 30.1463 26.9648 31.5815 25.1999 31.5815ZM25.1999 23.5813C22.5527 23.5813 20.3998 25.7342 20.3998 28.3814C20.3998 31.0287 22.5527 33.1816 25.1999 33.1816C27.8472 33.1816 30.0001 31.0287 30.0001 28.3814C30.0001 25.7342 27.8472 23.5813 25.1999 23.5813Z" fill="#5843BE"/>
<path fill-rule="evenodd" clip-rule="evenodd" d="M29.8735 20.9383C28.8863 20.3159 27.7687 19.8879 26.5702 19.6991L29.6431 14.7813H34.084L29.8735 20.9383ZM32.4 28.3817C32.4 32.3514 29.1703 35.5819 25.1998 35.5819C21.2301 35.5819 17.9996 32.3514 17.9996 28.3817C17.9996 24.4112 21.2301 21.1815 25.1998 21.1815C29.1703 21.1815 32.4 24.4112 32.4 28.3817ZM16.3156 14.7813H20.7565L23.8302 19.6991C22.6309 19.8879 21.5141 20.3159 20.5261 20.9383L16.3156 14.7813ZM36.3073 13.6077C36.1697 13.3453 35.8969 13.1813 35.6001 13.1813H29.1999C28.9239 13.1813 28.6679 13.3229 28.5215 13.5573L25.1998 18.8718L21.8781 13.5573C21.7317 13.3229 21.4757 13.1813 21.1997 13.1813H14.7995C14.5027 13.1813 14.2307 13.3453 14.0923 13.6077C13.9539 13.8701 13.9723 14.1877 14.1395 14.4325L19.2541 21.9127C17.5044 23.5224 16.3996 25.8224 16.3996 28.3817C16.3996 33.2338 20.3477 37.1819 25.1998 37.1819C30.0527 37.1819 34 33.2338 34 28.3817C34 25.8224 32.8952 23.5224 31.1456 21.9127L36.2609 14.4325C36.4281 14.1877 36.4465 13.8701 36.3073 13.6077Z" fill="#5843BE"/>
</svg>
