<svg width="25" height="25" viewBox="0 0 25 25" fill="none" xmlns="http://www.w3.org/2000/svg">
<g opacity="0.6">
<path fill-rule="evenodd" clip-rule="evenodd" d="M12.626 2.68413C7.16492 2.61264 2.73786 6.98212 2.73786 12.4436C2.72921 14.727 3.5198 16.9519 4.97257 18.7326L2.99495 20.6845C2.71438 20.9652 2.63245 21.3894 2.7873 21.7597C2.95527 22.1258 3.32626 22.3572 3.72667 22.3455L12.626 22.462C18.087 22.5335 22.5141 18.1641 22.5141 12.7025C22.5141 7.24101 18.087 2.75562 12.626 2.68413ZM12.6259 20.4842L6.1096 20.3989L7.02919 19.4913C7.41258 19.1106 7.41258 18.4876 7.02919 18.0969C4.35929 15.3948 3.94498 11.2075 6.03962 8.09564C8.13426 4.98377 12.1545 3.81394 15.642 5.30151C19.1294 6.78909 21.1128 10.5198 20.3793 14.2123C19.6457 17.9047 16.3996 20.5306 12.6259 20.4842Z" fill="#1B1C31"/>
</g>
</svg>
