<svg width="28" height="29" viewBox="0 0 28 29" fill="none" xmlns="http://www.w3.org/2000/svg">
<path d="M14.5558 13.6565C14.9774 13.662 15.3206 13.3234 15.3206 12.9017C15.3206 12.4799 14.9775 12.1323 14.5558 12.1268L13.4508 12.1123V13.642L14.5558 13.6565Z" fill="white"/>
<path d="M13.4512 15.2651L13.4512 17.126L14.9727 17.1459C15.4857 17.1526 15.903 16.7407 15.903 16.2277C15.903 15.7147 15.4857 15.2918 14.9727 15.2851L13.4512 15.2651Z" fill="white"/>
<path d="M10.8554 18.7148V17.092L11.8289 17.1048L11.8289 12.0914L10.8554 12.0787L10.8554 10.4559L13.2162 10.4868V9.10687L9.4953 9.05816L8.52112 10.0197L8.52112 19.0831L9.4953 20.0701L13.2162 20.1188L13.2162 18.7457L10.8554 18.7148Z" fill="white"/>
<path d="M14.8383 9.12817V10.5253C16.022 10.681 16.9434 11.7023 16.9434 12.9233C16.9434 13.4077 16.798 13.8567 16.5491 14.2303C17.143 14.7059 17.5255 15.4359 17.5255 16.249C17.5255 17.6568 16.3802 18.7872 14.9725 18.7688L14.8383 18.767V20.1402L18.5574 20.1888L19.5315 19.2273L19.5315 10.1639L18.5574 9.17691L14.8383 9.12823V9.12817Z" fill="white"/>
<path d="M27.8694 11.1873V9.56451L24.4868 9.52023V6.98832L21.7974 4.26346L19.2657 4.23032V0.847466L17.6431 0.826225V4.20907L14.8374 4.17235L14.8374 0.789496L13.2147 0.768254L13.2147 4.1511L10.409 4.11438L10.409 0.731525L8.78637 0.710284L8.78637 4.09313L6.25467 4.05999L3.56525 6.71444L3.56525 9.24636L0.182739 9.20208L0.182739 10.8249L3.5653 10.8691L3.5653 13.6751L0.182739 13.6308L0.182739 15.2536L3.5653 15.2979L3.5653 18.1038L0.182739 18.0595L0.182739 19.6823L3.5653 19.7266L3.5653 22.2585L6.25472 24.9834L8.78642 25.0165V28.3994L10.4091 28.4206V25.0378L13.2148 25.0745V28.4573L14.8374 28.4786V25.0957L17.6431 25.1325L17.6431 28.5153L19.2658 28.5366L19.2658 25.1537L21.7975 25.1868L24.4869 22.5324V20.0004L27.8695 20.0447L27.8695 18.4219L24.4869 18.3776V15.5717L27.8695 15.616V13.9932L24.4869 13.9489L24.4869 11.143L27.8694 11.1872V11.1873ZM21.1542 19.9206L19.2295 21.8203L8.82261 21.684L6.89794 19.7339L6.89794 9.32617L8.82261 7.42648L19.2295 7.56271L21.1541 9.51279L21.1541 19.9206L21.1542 19.9206Z" fill="white"/>
<rect width="8.04813" height="11.012" transform="matrix(0.999914 0.0130896 0 1 10.2336 9.06787)" fill="white"/>
<path d="M16.78 13.6367C16.7637 13.6078 16.7402 13.5837 16.7117 13.5667C16.6832 13.5498 16.6509 13.5406 16.6179 13.5402L14.178 13.5082L14.587 10.3878C14.5914 10.346 14.5816 10.3038 14.5592 10.2679C14.5367 10.2321 14.503 10.2046 14.4633 10.1901C14.4237 10.1755 14.3805 10.1746 14.3406 10.1876C14.3008 10.2006 14.2667 10.2266 14.2437 10.2616L11.2765 15.4217C11.2591 15.4497 11.2496 15.4819 11.2489 15.515C11.2483 15.5481 11.2564 15.5809 11.2726 15.6101C11.2887 15.6392 11.3123 15.6636 11.3409 15.6807C11.3695 15.6979 11.402 15.7071 11.4351 15.7076L13.8386 15.739L13.5144 18.8653C13.5113 18.9069 13.5221 18.9486 13.5453 18.9837C13.5684 19.0188 13.6025 19.0454 13.6422 19.0591C13.6819 19.0727 13.7248 19.0728 13.7642 19.0593C13.8036 19.0458 13.8371 19.0194 13.8595 18.9844L16.7777 13.8242C16.7947 13.7962 16.8038 13.764 16.8042 13.7311C16.8046 13.6982 16.7962 13.6656 16.78 13.6367Z" fill="#FE8F66"/>
</svg>
