<svg width="49" height="50" viewBox="0 0 49 50" fill="none" xmlns="http://www.w3.org/2000/svg">
<path d="M28.6428 20.1262L19 29.6436M19 29.6436L19 20M19 29.6436L28.6428 29.7699" stroke="#3B3B3B" stroke-width="1.34342" stroke-linecap="round" stroke-linejoin="round"/>
<path d="M24.2266 2.74002C24.2266 1.4019 25.314 0.318819 26.6453 0.469827C31.0285 0.967004 35.2256 2.65099 38.7728 5.36095C42.9682 8.56611 46.0277 13.0333 47.4913 18.0908C48.955 23.1484 48.7437 28.523 46.8893 33.4068C45.0349 38.2905 41.6375 42.4194 37.2079 45.1728C32.7783 47.9261 27.5559 49.1551 22.3258 48.675C17.0957 48.1949 12.1406 46.0316 8.20527 42.5104C4.26998 38.9891 1.56724 34.3002 0.503361 29.1486C-0.396147 24.7929 -0.08298 20.3054 1.38539 16.171C1.83138 14.9152 3.28716 14.4175 4.49781 15.0031V15.0031C5.70847 15.5887 6.21216 17.0358 5.79785 18.3028C4.758 21.4825 4.56141 24.9033 5.24802 28.228C6.09912 32.3493 8.26131 36.1005 11.4095 38.9175C14.5578 41.7344 18.5219 43.4651 22.706 43.8492C26.8901 44.2333 31.068 43.2501 34.6117 41.0474C38.1553 38.8447 40.8732 35.5416 42.3568 31.6346C43.8403 27.7276 44.0093 23.4279 42.8384 19.3818C41.6675 15.3358 39.2199 11.7621 35.8636 9.19793C33.156 7.12939 29.975 5.80807 26.6431 5.34574C25.3155 5.16153 24.2266 4.07813 24.2266 2.74002V2.74002Z" fill="#51459E"/>
</svg>
