<svg width="25" height="25" viewBox="0 0 25 25" fill="none" xmlns="http://www.w3.org/2000/svg">
<g opacity="0.6">
<path fill-rule="evenodd" clip-rule="evenodd" d="M7.65367 3.30276C9.83809 3.33135 11.6089 5.12551 11.6089 7.31012C11.6089 9.49473 9.83809 11.2425 7.65367 11.2139C5.46925 11.1853 3.69843 9.39117 3.69843 7.20656C3.69843 5.02195 5.46925 3.27416 7.65367 3.30276ZM7.65342 5.28051C6.56121 5.26622 5.6758 6.14011 5.6758 7.23242C5.6758 8.32472 6.56121 9.2218 7.65342 9.2361C8.74563 9.2504 9.63105 8.3765 9.63105 7.2842C9.63105 6.19189 8.74563 5.29481 7.65342 5.28051ZM17.5417 3.4322C19.7261 3.46079 21.4969 5.25495 21.4969 7.43956C21.4969 9.62417 19.7261 11.372 17.5417 11.3434C15.3573 11.3148 13.5864 9.52061 13.5864 7.336C13.5864 5.1514 15.3573 3.4036 17.5417 3.4322ZM17.542 5.40996C16.4498 5.39567 15.5644 6.26956 15.5644 7.36187C15.5644 8.45417 16.4498 9.35125 17.542 9.36555C18.6342 9.37984 19.5196 8.50595 19.5196 7.41364C19.5196 6.32134 18.6342 5.42426 17.542 5.40996ZM11.6087 17.1992C11.6087 15.0146 9.83791 13.2204 7.65349 13.1918C5.46907 13.1633 3.69824 14.911 3.69824 17.0957C3.69824 19.2803 5.46907 21.0744 7.65349 21.103C9.83791 21.1316 11.6087 19.3838 11.6087 17.1992ZM5.67562 17.1215C5.67562 16.0292 6.56103 15.1553 7.65324 15.1696C8.74545 15.1839 9.63086 16.081 9.63086 17.1733C9.63086 18.2656 8.74545 19.1395 7.65324 19.1252C6.56103 19.1109 5.67562 18.2138 5.67562 17.1215ZM17.5415 13.3213C19.7259 13.3499 21.4967 15.144 21.4967 17.3286C21.4967 19.5133 19.7259 21.2611 17.5415 21.2325C15.3571 21.2039 13.5863 19.4097 13.5863 17.2251C13.5863 15.0405 15.3571 13.2927 17.5415 13.3213ZM17.5418 15.2991C16.4496 15.2848 15.5642 16.1587 15.5642 17.251C15.5642 18.3433 16.4496 19.2403 17.5418 19.2546C18.634 19.2689 19.5194 18.395 19.5194 17.3027C19.5194 16.2104 18.634 15.3134 17.5418 15.2991Z" fill="#1B1C31"/>
</g>
</svg>
