<svg width="21" height="21" viewBox="0 0 21 21" fill="none" xmlns="http://www.w3.org/2000/svg">
<path d="M16.982 1.95226V3.14274L15.8071 3.12736V1.93688L12.7369 1.89669V3.08717L11.5621 3.07179V1.88131L8.4919 1.84112V3.0316L7.31708 3.01622V1.82574L4.24687 1.78555V2.97603L3.07204 2.96065L3.07204 1.77017L0.00183105 1.72998L0.00183105 4.47641L20.0522 4.73888V1.99245L16.982 1.95226Z" fill="white"/>
<path d="M16.3827 20.5516L20.0518 16.9106L16.3827 16.8625V20.5516Z" fill="white"/>
<path d="M0.00170898 20.3371L15.2081 20.5362L15.2081 15.6722L20.0521 15.7356L20.0521 5.91384L0.00170898 5.65137L0.00170898 20.3371ZM7.25175 15.0343L9.93967 15.0694C10.7084 15.0795 11.3339 14.4702 11.3339 13.7112C11.3339 12.9523 10.7084 12.3266 9.93967 12.3165L7.32487 12.2823L7.32487 8.51148L12.1415 8.57453V9.74946L8.49969 9.70179V11.1227L9.93967 11.1416C11.3562 11.1601 12.5087 12.3198 12.5087 13.7266C12.5087 15.1334 11.3562 16.2629 9.93967 16.2444L7.25175 16.2092L7.25175 15.0343Z" fill="white"/>
<path d="M15.8068 0.765869L16.9816 0.781248V1.95206L15.8068 1.93668V0.765869Z" fill="white"/>
<path d="M11.5623 0.710449L12.7371 0.725829V1.89664L11.5623 1.88126V0.710449Z" fill="white"/>
<path d="M7.31702 0.654785L8.49184 0.670164V1.84098L7.31702 1.8256V0.654785Z" fill="white"/>
<path d="M3.0719 0.599365L4.24672 0.614745V1.78556L3.0719 1.77018L3.0719 0.599365Z" fill="white"/>
</svg>
