<svg width="24" height="25" viewBox="0 0 24 25" fill="none" xmlns="http://www.w3.org/2000/svg">
<path fill-rule="evenodd" clip-rule="evenodd" d="M12.0898 2.64842C12.4993 2.65378 12.8314 2.99019 12.8314 3.3998V4.42301C16.6083 4.82365 19.6148 7.86973 19.9659 11.6516L20.9891 11.665C21.3986 11.6703 21.7307 12.0068 21.7307 12.4164C21.7307 12.826 21.3986 13.1537 20.9891 13.1483L19.9659 13.1349C19.6148 16.9076 16.6083 19.875 12.8314 20.1767V21.1999C12.8314 21.6095 12.4993 21.9373 12.0898 21.9319C11.6802 21.9265 11.3482 21.5901 11.3482 21.1805V20.1573C7.57121 19.7567 4.56475 16.7106 4.21358 12.9287L3.19046 12.9153C2.78088 12.91 2.44885 12.5736 2.44885 12.164C2.44885 11.7543 2.78088 11.4266 3.19046 11.432L4.21358 11.4454C4.56475 7.67271 7.57121 4.70535 11.3482 4.40359V3.38039C11.3482 2.97077 11.6802 2.64306 12.0898 2.64842ZM12.0898 18.718C15.6394 18.7645 18.517 15.9243 18.517 12.3743C18.517 8.82431 15.6394 5.9088 12.0898 5.86233C8.54008 5.81587 5.66249 8.65603 5.66249 12.206C5.66249 15.756 8.54008 18.6715 12.0898 18.718Z" fill="#FC6B21"/>
<path fill-rule="evenodd" clip-rule="evenodd" d="M12.0897 13.7735C12.9089 13.7843 13.5729 13.1288 13.5729 12.3096C13.5729 11.4904 12.9089 10.8176 12.0897 10.8068C11.2706 10.7961 10.6065 11.4515 10.6065 12.2708C10.6065 13.09 11.2706 13.7628 12.0897 13.7735ZM12.0897 15.2569C13.728 15.2783 15.0562 13.9675 15.0562 12.329C15.0562 10.6906 13.728 9.34495 12.0897 9.3235C10.4514 9.30205 9.12329 10.6129 9.12329 12.2514C9.12329 13.8898 10.4514 15.2354 12.0897 15.2569Z" fill="#FC6B21"/>
</svg>
