<svg width="28" height="29" viewBox="0 0 28 29" fill="none" xmlns="http://www.w3.org/2000/svg">
<path d="M14.5574 13.7C14.979 13.7055 15.3222 13.3669 15.3222 12.9451C15.3222 12.5233 14.9791 12.1757 14.5574 12.1702L13.4524 12.1558V13.6855L14.5574 13.7Z" fill="white"/>
<path d="M13.4528 15.3086V17.1694L14.9743 17.1894C15.4873 17.1961 15.9046 16.7842 15.9046 16.2711C15.9046 15.7581 15.4873 15.3352 14.9743 15.3285L13.4528 15.3086Z" fill="white"/>
<path d="M10.857 18.7583V17.1355L11.8305 17.1482L11.8305 12.1349L10.857 12.1221L10.857 10.4993L13.2178 10.5302V9.15033L9.49689 9.10162L8.52271 10.0632L8.52271 19.1265L9.49689 20.1136L13.2178 20.1623V18.7892L10.857 18.7583Z" fill="white"/>
<path d="M14.8398 9.17163V10.5688C16.0236 10.7245 16.945 11.7458 16.945 12.9667C16.945 13.4511 16.7996 13.9002 16.5507 14.2737C17.1446 14.7494 17.527 15.4793 17.527 16.2924C17.527 17.7002 16.3818 18.8306 14.9741 18.8122L14.8398 18.8105L14.8398 20.1836L18.5589 20.2323L19.5331 19.2707L19.5331 10.2074L18.5589 9.22037L14.8398 9.17169V9.17163Z" fill="white"/>
<path d="M27.871 11.2308V9.60797L24.4884 9.56369V7.03177L21.799 4.30692L19.2673 4.27377V0.890923L17.6447 0.869682V4.25253L14.839 4.2158L14.839 0.832953L13.2163 0.811711L13.2163 4.19456L10.4106 4.15783L10.4106 0.774982L8.78795 0.753741L8.78795 4.13659L6.25625 4.10345L3.56683 6.7579L3.56683 9.28981L0.184326 9.24553L0.184326 10.8683L3.56689 10.9126L3.56689 13.7185L0.184326 13.6743L0.184326 15.297L3.56689 15.3413L3.56689 18.1472L0.184326 18.1029L0.184326 19.7257L3.56689 19.77L3.56689 22.302L6.25631 25.0268L8.78801 25.06L8.78801 28.4428L10.4107 28.4641L10.4107 25.0812L13.2164 25.1179L13.2164 28.5008L14.839 28.522L14.839 25.1392L17.6447 25.1759V28.5588L19.2674 28.58V25.1972L21.7991 25.2303L24.4885 22.5759L24.4885 20.0439L27.871 20.0882V18.4654L24.4885 18.4211V15.6152L27.871 15.6594V14.0367L24.4885 13.9924L24.4885 11.1864L27.871 11.2307V11.2308ZM21.1558 19.964L19.2311 21.8637L8.82419 21.7275L6.89952 19.7774L6.89952 9.36963L8.82419 7.46993L19.2311 7.60617L21.1557 9.55625L21.1557 19.964L21.1558 19.964Z" fill="white"/>
</svg>
