<svg width="50" height="51" viewBox="0 0 50 51" fill="none" xmlns="http://www.w3.org/2000/svg">
<rect opacity="0.1" y="0.181305" width="50" height="50" rx="10.1961" fill="#1A55AF"/>
<path fill-rule="evenodd" clip-rule="evenodd" d="M15.4991 19.0103H13.1201C12.5939 19.0103 12.1685 19.4357 12.1685 19.9619C12.1685 20.4881 12.5939 20.9135 13.1201 20.9135H14.0717V21.8651C14.0717 22.3913 14.4971 22.8167 15.0233 22.8167C15.5486 22.8167 15.9749 22.3913 15.9749 21.8651V20.865C17.0588 20.6442 17.8781 19.684 17.8781 18.5345C17.8781 17.2222 16.8104 16.1555 15.4991 16.1555H14.5475C14.2848 16.1555 14.0717 15.9414 14.0717 15.6797C14.0717 15.418 14.2848 15.2039 14.5475 15.2039H16.9265C17.4518 15.2039 17.8781 14.7785 17.8781 14.2523C17.8781 13.7261 17.4518 13.3007 16.9265 13.3007H15.9749V12.3491C15.9749 11.8229 15.5486 11.3975 15.0233 11.3975C14.4971 11.3975 14.0717 11.8229 14.0717 12.3491V13.3492C12.9869 13.57 12.1685 14.5302 12.1685 15.6797C12.1685 16.992 13.2352 18.0587 14.5475 18.0587H15.4991C15.7608 18.0587 15.9749 18.2728 15.9749 18.5345C15.9749 18.7962 15.7608 19.0103 15.4991 19.0103Z" fill="#1A55AF"/>
<path fill-rule="evenodd" clip-rule="evenodd" d="M31.2 33.2843H16.926C16.4017 33.2843 15.9744 32.858 15.9744 32.3327V27.9687L17.2048 29.1991C17.5769 29.5712 18.1783 29.5712 18.5504 29.1991C18.9225 28.827 18.9225 28.2256 18.5504 27.8535L15.6956 24.9987C15.3235 24.6267 14.7221 24.6267 14.35 24.9987L11.4952 27.8535C11.1232 28.2256 11.1232 28.827 11.4952 29.1991C11.8673 29.5712 12.4687 29.5712 12.8408 29.1991L14.0712 27.9687V32.3327C14.0712 33.9067 15.3521 35.1875 16.926 35.1875H31.2C31.7253 35.1875 32.1516 34.7622 32.1516 34.2359C32.1516 33.7097 31.7253 33.2843 31.2 33.2843Z" fill="#1A55AF"/>
<path fill-rule="evenodd" clip-rule="evenodd" d="M35.4818 32.3327H37.8608C38.387 32.3327 38.8124 31.9074 38.8124 31.3811C38.8124 30.8549 38.387 30.4295 37.8608 30.4295H36.9092V29.4779C36.9092 28.9517 36.4838 28.5263 35.9576 28.5263C35.4323 28.5263 35.006 28.9517 35.006 29.4779V30.478C33.9221 30.6988 33.1028 31.659 33.1028 32.8085C33.1028 34.1208 34.1705 35.1875 35.4818 35.1875H36.4334C36.696 35.1875 36.9092 35.4016 36.9092 35.6633C36.9092 35.925 36.696 36.1391 36.4334 36.1391H34.0544C33.5291 36.1391 33.1028 36.5645 33.1028 37.0907C33.1028 37.617 33.5291 38.0423 34.0544 38.0423H35.006V38.9939C35.006 39.5202 35.4323 39.9455 35.9576 39.9455C36.4838 39.9455 36.9092 39.5202 36.9092 38.9939V37.9938C37.994 37.773 38.8124 36.8129 38.8124 35.6633C38.8124 34.3511 37.7456 33.2843 36.4334 33.2843H35.4818C35.2201 33.2843 35.006 33.0702 35.006 32.8085C35.006 32.5468 35.2201 32.3327 35.4818 32.3327Z" fill="#1A55AF"/>
<path fill-rule="evenodd" clip-rule="evenodd" d="M39.4857 22.1439C39.1136 21.7718 38.5122 21.7718 38.1401 22.1439L36.9097 23.3743V19.0103C36.9097 17.4364 35.6288 16.1555 34.0549 16.1555H19.7809C19.2556 16.1555 18.8293 16.5809 18.8293 17.1071C18.8293 17.6333 19.2556 18.0587 19.7809 18.0587H34.0549C34.5792 18.0587 35.0065 18.485 35.0065 19.0103V23.3743L33.7761 22.1439C33.404 21.7718 32.8026 21.7718 32.4305 22.1439C32.0584 22.516 32.0584 23.1174 32.4305 23.4895L35.2853 26.3443C35.6574 26.7164 36.2588 26.7164 36.6309 26.3443L39.4857 23.4895C39.8577 23.1174 39.8577 22.516 39.4857 22.1439Z" fill="#1A55AF"/>
</svg>
