<svg width="16" height="17" viewBox="0 0 16 17" fill="none" xmlns="http://www.w3.org/2000/svg">
<g clip-path="url(#clip0_114_180)">
<path d="M13.9837 0.686177L2.11795 0.530846C1.75407 0.526083 1.45874 0.816908 1.45874 1.18148L1.45874 16.3446L4.09557 14.4013L6.07319 16.405L8.05082 14.4531L10.0284 16.4567L12.0061 14.5048L14.6429 16.5171L14.6429 1.35407C14.6429 0.989498 14.3476 0.690941 13.9837 0.686177ZM8.71002 11.1654L4.09557 11.105V9.78643L8.71002 9.84684V11.1654ZM8.71002 8.52831L4.09557 8.4679L4.09557 7.14937L8.71002 7.20978L8.71002 8.52831ZM8.71002 5.89125L4.09557 5.83085V4.51232L8.71002 4.57273L8.71002 5.89125ZM12.0061 11.2085L10.0284 11.1826V9.8641L12.0061 9.88998V11.2085ZM12.0061 8.57146L10.0284 8.54557V7.22704L12.0061 7.25293V8.57146ZM12.0061 5.9344L10.0284 5.90851V4.58998L12.0061 4.61587V5.9344Z" fill="white"/>
</g>
<defs>
<clipPath id="clip0_114_180">
<rect width="15.8223" height="15.8223" fill="white" transform="matrix(0.999914 0.0130896 0 1 0.140137 0.505127)"/>
</clipPath>
</defs>
</svg>
