<svg width="14" height="17" viewBox="0 0 14 17" fill="none" xmlns="http://www.w3.org/2000/svg">
<path d="M7.41357 9.69824V10.9805C7.88029 10.9075 8.11365 10.7082 8.11365 10.3818C8.11365 10.0344 7.73131 9.8481 7.41357 9.69824Z" fill="white"/>
<path d="M6.04395 7.2291C6.04395 7.59301 6.37289 7.76015 6.70843 7.91222V6.70181C6.26544 6.76128 6.04395 6.93704 6.04395 7.2291Z" fill="white"/>
<path d="M11.0057 2.14858L9.02807 0.144898L7.05045 2.0968L5.07283 0.0931213L3.0952 2.04502L0.458374 0.0327148L0.458374 15.1958C0.458374 15.5604 0.753699 15.8589 1.11758 15.8637L12.9833 16.019C13.3472 16.0238 13.6425 15.7329 13.6425 15.3684L13.6425 0.205305L11.0057 2.14858ZM7.41367 12.2068L7.41367 13.2629L6.70832 13.2537L6.70832 12.2186C5.87047 12.1905 5.13545 12.0332 4.50393 11.7467V10.3873C5.09722 10.6885 6.03857 10.9579 6.70832 11.0082L6.70832 9.41147C5.529 8.9385 4.49404 8.48127 4.49404 7.20889C4.49404 6.0532 5.55405 5.52385 6.70832 5.4249V4.63642L7.41367 4.64566V5.41304C8.19945 5.45761 8.91073 5.62514 9.54555 5.91496L9.06169 7.11376C8.52641 6.88722 7.97663 6.74619 7.41367 6.69069L7.41367 8.2103C8.66485 8.70794 9.66421 9.15943 9.66421 10.3257C9.66421 11.5552 8.64309 12.1101 7.41367 12.2068Z" fill="white"/>
</svg>
