<svg width="25" height="25" viewBox="0 0 25 25" fill="none" xmlns="http://www.w3.org/2000/svg">
<g opacity="0.6">
<path fill-rule="evenodd" clip-rule="evenodd" d="M9.63211 4.69608C9.08599 4.68894 8.64329 5.12589 8.64329 5.67204L8.64329 10.6163L3.69877 10.5515C3.15265 10.5444 2.70996 10.9813 2.70996 11.5275L2.70996 19.4387C2.70996 19.9848 3.15265 20.4334 3.69877 20.4405L9.6097 20.5179C9.61715 20.5181 9.62462 20.5183 9.63211 20.5184L15.565 20.5961L15.5727 20.5962L21.4977 20.6737C22.0438 20.6809 22.4865 20.2439 22.4865 19.6978L22.4865 9.80881C22.4865 9.26266 22.0438 8.81412 21.4977 8.80697L16.5538 8.74225V5.77559C16.5538 5.22944 16.1111 4.7809 15.565 4.77375L9.63211 4.69608ZM20.5087 18.683L16.5538 18.6312L16.5538 10.72L20.5087 10.7718V18.683ZM14.5759 6.73856L10.6207 6.68679L10.6207 18.5535L14.5759 18.6053L14.5759 6.73856ZM4.68734 12.5422L8.64258 12.594V18.5274L4.68734 18.4756L4.68734 12.5422Z" fill="#1B1C31"/>
</g>
</svg>
