<svg width="25" height="25" viewBox="0 0 25 25" fill="none" xmlns="http://www.w3.org/2000/svg">
<g opacity="0.6">
<path fill-rule="evenodd" clip-rule="evenodd" d="M7.50104 18.6802C7.76759 18.4615 8.10359 18.3442 8.45057 18.3488L19.3275 18.4912C20.1466 18.5019 20.8107 17.8465 20.8107 17.0272L20.8107 7.13829C20.8107 6.31906 20.1466 5.64625 19.3275 5.63553L5.48413 5.45431C4.66498 5.44358 4.00092 6.09901 4.00092 6.91823L4.00092 20.4957C4.00092 20.9149 4.48982 21.1503 4.81183 20.8862L7.50104 18.6802ZM8.45057 19.8321L19.3275 19.9745C20.9658 19.996 22.2939 18.6851 22.2939 17.0467L22.2939 7.1577C22.2939 5.51925 20.9658 4.17363 19.3275 4.15218L5.48413 3.97096C3.84582 3.94951 2.5177 5.26036 2.5177 6.89882L2.5177 20.4763C2.5177 22.1531 4.47328 23.0948 5.76136 22.0381L8.45057 19.8321Z" fill="black"/>
<path fill-rule="evenodd" clip-rule="evenodd" d="M7.70898 9.93332C7.70898 9.52371 8.04101 9.196 8.45059 9.20136L16.3611 9.30491C16.7707 9.31027 17.1027 9.64668 17.1027 10.0563C17.1027 10.4659 16.7707 10.7936 16.3611 10.7883L8.45059 10.6847C8.04101 10.6793 7.70898 10.3429 7.70898 9.93332Z" fill="black"/>
<path fill-rule="evenodd" clip-rule="evenodd" d="M7.70898 13.8889C7.70898 13.4793 8.04101 13.1516 8.45059 13.1569L12.4058 13.2087C12.8154 13.2141 13.1474 13.5505 13.1474 13.9601C13.1474 14.3697 12.8154 14.6974 12.4058 14.692L8.45059 14.6403C8.04101 14.6349 7.70898 14.2985 7.70898 13.8889Z" fill="black"/>
</g>
</svg>
