<svg width="25" height="25" viewBox="0 0 25 25" fill="none" xmlns="http://www.w3.org/2000/svg">
<g opacity="0.6">
<path fill-rule="evenodd" clip-rule="evenodd" d="M20.5079 1.62778L4.68689 1.42067C3.04858 1.39922 1.72046 2.71007 1.72046 4.34852L1.72046 20.1709C1.72046 21.8093 3.04858 23.1549 4.68689 23.1764L20.5079 23.3835C22.1462 23.4049 23.4743 22.0941 23.4743 20.4556L23.4743 4.6333C23.4743 2.99484 22.1462 1.64922 20.5079 1.62778ZM8.64247 21.2506L4.68722 21.1988C4.14112 21.1917 3.69841 20.7431 3.69841 20.197L3.69841 19.0301C4.0155 19.1494 4.3499 19.2139 4.68722 19.221L8.64247 19.2728V21.2506ZM8.6422 17.2951L4.68696 17.2433C4.14085 17.2361 3.69815 16.7876 3.69815 16.2415L3.69815 15.0746C4.01523 15.1938 4.34963 15.2584 4.68696 15.2655L8.6422 15.3173L8.6422 17.2951ZM8.64246 13.3392L4.68721 13.2874C4.14111 13.2802 3.6984 12.8317 3.6984 12.2856L3.6984 4.37439C3.6984 3.82823 4.14111 3.39129 4.68721 3.39843L8.64246 3.45021L8.64246 13.3392ZM14.575 21.3281L10.6198 21.2763L10.6198 15.343L14.575 15.3947L14.575 21.3281ZM14.5748 13.4168L10.6196 13.3651L10.6196 3.47609L14.5748 3.52787L14.5748 13.4168ZM21.4965 20.43C21.4965 20.9761 21.0538 21.4131 20.5077 21.4059L16.5525 21.3541V19.3764L20.5077 19.4281C20.845 19.4299 21.1794 19.3741 21.4965 19.2631V20.43ZM21.4968 16.4745C21.4968 17.0206 21.0541 17.4576 20.508 17.4504L16.5528 17.3986V15.4208L20.508 15.4726C20.8454 15.4744 21.1797 15.4185 21.4968 15.3076L21.4968 16.4745ZM21.4965 12.5185C21.4965 13.0647 21.0538 13.5016 20.5077 13.4945L16.5525 13.4427L16.5525 3.55376L20.5077 3.60554C21.0538 3.61269 21.4965 4.06122 21.4965 4.60738L21.4965 12.5185ZM18.5304 7.53547C17.9843 7.52832 17.5416 7.96527 17.5416 8.51142C17.5416 9.05757 17.9843 9.50611 18.5304 9.51326C19.0765 9.52041 19.5192 9.08346 19.5192 8.53731C19.5192 7.99115 19.0765 7.54262 18.5304 7.53547ZM6.66466 9.35793C7.21077 9.36508 7.65347 8.92813 7.65347 8.38198C7.65347 7.83582 7.21077 7.38728 6.66466 7.38014C6.11856 7.37299 5.67585 7.80994 5.67585 8.35609C5.67585 8.90224 6.11856 9.35078 6.66466 9.35793Z" fill="#1B1C31"/>
</g>
</svg>
