<svg width="36" height="37" viewBox="0 0 36 37" fill="none" xmlns="http://www.w3.org/2000/svg">
<rect width="35.6003" height="35.6003" rx="9.88896" transform="matrix(0.999914 0.0130896 0 1 0.0179443 0.311279)" fill="white"/>
<path d="M11.8836 20.2447C12.9758 20.259 13.8613 19.3851 13.8613 18.2928C13.8613 17.2004 12.9758 16.3034 11.8836 16.2891C10.7914 16.2748 9.90601 17.1487 9.90601 18.241C9.90601 19.3333 10.7914 20.2304 11.8836 20.2447Z" fill="#3246D3"/>
<path d="M17.8166 20.3223C18.9088 20.3366 19.7942 19.4627 19.7942 18.3704C19.7942 17.2781 18.9088 16.381 17.8166 16.3667C16.7243 16.3524 15.8389 17.2263 15.8389 18.3186C15.8389 19.4109 16.7243 20.308 17.8166 20.3223Z" fill="#3246D3"/>
<path d="M23.7494 20.3999C24.8416 20.4142 25.727 19.5403 25.727 18.448C25.727 17.3557 24.8416 16.4586 23.7494 16.4443C22.6572 16.43 21.7718 17.3039 21.7718 18.3962C21.7718 19.4886 22.6572 20.3856 23.7494 20.3999Z" fill="#3246D3"/>
</svg>
