<svg width="24" height="26" viewBox="0 0 24 26" fill="none" xmlns="http://www.w3.org/2000/svg">
<g opacity="0.6">
<path fill-rule="evenodd" clip-rule="evenodd" d="M15.821 18.985L20.3555 19.0444C21.1278 19.0545 21.7539 18.4365 21.7539 17.6642C21.7539 17.2932 21.6066 16.9356 21.3443 16.6699L20.3555 15.6681C19.9846 15.2923 19.7763 14.7865 19.7763 14.262L19.7763 11.0966C19.7763 6.74341 16.2476 3.16825 11.8948 3.11127C7.53269 3.05416 4.00021 6.55132 4.0133 10.9139L4.02266 14.032C4.02428 14.5706 3.80625 15.0836 3.41894 15.4527L2.4015 16.4221C2.13064 16.6802 1.97766 17.0387 1.97766 17.4153C1.97766 18.1821 2.59926 18.8119 3.36603 18.822L7.91053 18.8814C7.91053 21.0661 9.68135 22.8602 11.8658 22.8888C14.0502 22.9174 15.821 21.1696 15.821 18.985ZM19.3067 16.7032L20.1507 17.5583L3.60076 17.3417L4.44937 16.5331C5.12716 15.8873 5.5087 14.9894 5.50587 14.047L5.49651 10.9289C5.48588 7.38729 8.35359 4.54825 11.8948 4.59461C15.4284 4.64087 18.293 7.54322 18.293 11.0772L18.293 14.2426C18.293 15.1605 18.6577 16.0456 19.3067 16.7032ZM14.3378 18.9656L9.39374 18.9009C9.39374 20.2662 10.5005 21.3876 11.8658 21.4055C13.231 21.4233 14.3378 20.331 14.3378 18.9656Z" fill="black"/>
</g>
</svg>