<svg width="49" height="50" viewBox="0 0 49 50" fill="none" xmlns="http://www.w3.org/2000/svg">
<path d="M19 29.6435L28.6428 20.1261M28.6428 20.1261L28.6428 29.7698M28.6428 20.1261L19 19.9999" stroke="#3B3B3B" stroke-width="1.34342" stroke-linecap="round" stroke-linejoin="round"/>
<path d="M24.2266 2.74002C24.2266 1.4019 25.314 0.318829 26.6453 0.469848C29.7883 0.826377 32.8475 1.79438 35.647 3.32754C39.1607 5.25179 42.1569 8.00689 44.3703 11.3488C46.5838 14.6907 47.9461 18.5163 48.3366 22.4866C48.7271 26.457 48.1338 30.4496 46.6091 34.1108C45.0845 37.772 42.6756 40.9887 39.5959 43.4761C36.5161 45.9635 32.8606 47.6447 28.953 48.3709C25.0455 49.0971 21.0066 48.8458 17.194 47.6392C14.1564 46.6779 11.3371 45.1339 8.89167 43.1022C7.85583 42.2417 7.8628 40.6969 8.8089 39.7631C9.75501 38.8293 11.2809 38.8632 12.3376 39.6979C14.2041 41.1723 16.3258 42.3007 18.6005 43.0206C21.6506 43.9858 24.8817 44.1868 28.0077 43.6059C31.1338 43.0249 34.0582 41.68 36.522 39.6901C38.9858 37.7001 40.9129 35.1267 42.1326 32.1978C43.3524 29.2689 43.827 26.0748 43.5146 22.8985C43.2022 19.7222 42.1124 16.6617 40.3416 13.9882C38.5709 11.3147 36.1738 9.1106 33.3629 7.5712C31.2665 6.4231 28.9881 5.67115 26.643 5.34575C25.3155 5.16154 24.2266 4.07813 24.2266 2.74002Z" fill="#F9896B"/>
</svg>
