<svg width="25" height="25" viewBox="0 0 25 25" fill="none" xmlns="http://www.w3.org/2000/svg">
<g opacity="0.6">
<path fill-rule="evenodd" clip-rule="evenodd" d="M20.1587 13.5249C19.9513 13.5222 19.7345 13.4532 19.5271 13.4032C19.1071 13.3048 18.6943 13.1762 18.2921 13.0182C17.3863 12.6759 16.3779 13.0705 15.954 13.9332L15.7466 14.356C14.8284 13.8316 13.9846 13.1843 13.2389 12.432C12.4986 11.6744 11.8642 10.8197 11.3534 9.89206L11.7494 9.63248C12.615 9.21871 13.0216 8.21256 12.6921 7.29978C12.5424 6.89351 12.4196 6.47809 12.3244 6.05626C12.2773 5.84761 12.2396 5.62963 12.2113 5.41178C11.9748 4.03265 10.7751 3.01818 9.38305 3.02026L6.55479 2.98323C5.73265 2.96473 4.94784 3.30592 4.40477 3.91796C3.8617 4.52999 3.61412 5.35227 3.72652 6.17064C4.75972 14.3334 11.1722 20.8258 19.3008 21.9388L19.6591 21.9435C20.3543 21.9536 21.0255 21.7066 21.5446 21.2495C22.1479 20.7162 22.4911 19.9462 22.4873 19.1343V16.2976C22.4635 14.9428 21.4882 13.7814 20.1587 13.5249ZM20.5095 19.0391C20.5091 19.3062 20.3934 19.5588 20.1918 19.7325C19.9813 19.9122 19.7027 19.9932 19.4258 19.955C12.2285 18.942 6.57191 13.2097 5.68326 6.02837C5.65322 5.75267 5.7376 5.4782 5.91682 5.26876C6.09392 5.07037 6.34915 4.95852 6.61749 4.9617L9.42018 4.99839C9.86832 4.99432 10.2604 5.30782 10.3544 5.74539C10.3918 6.0001 10.4385 6.25184 10.4945 6.50059C10.6025 6.9923 10.7461 7.476 10.9243 7.94786L9.61636 8.5353C9.3905 8.63551 9.21523 8.82172 9.12932 9.05274C9.04342 9.28376 9.05395 9.54056 9.15859 9.76632C10.5031 12.6512 12.8182 14.9863 15.6982 16.3626C15.9256 16.4586 16.1808 16.4619 16.4082 16.3719C16.6435 16.2911 16.8353 16.1194 16.9407 15.8952L17.5199 14.6006C18.0029 14.7789 18.4958 14.9282 18.996 15.0478C19.2451 15.1069 19.4974 15.1567 19.7527 15.1972C20.191 15.2966 20.5008 15.6909 20.4908 16.137L20.5095 19.0391Z" fill="#1B1C31"/>
</g>
</svg>
