<svg width="20" height="21" viewBox="0 0 20 21" fill="none" xmlns="http://www.w3.org/2000/svg">
<path fill-rule="evenodd" clip-rule="evenodd" d="M5.14584 0.484399C5.55542 0.489761 5.88745 0.826165 5.88745 1.23578V2.22467L14.2923 2.3347V1.34581C14.2923 0.936191 14.6244 0.60848 15.034 0.613841C15.4435 0.619203 15.7756 0.955607 15.7756 1.36522V2.35412L17.0116 2.3703C18.6499 2.39174 19.978 3.73736 19.978 5.37582L19.978 17.2426C19.978 18.881 18.6499 20.1919 17.0116 20.1704L3.16822 19.9892C1.5299 19.9678 0.201782 18.6221 0.201782 16.9837L0.201782 5.11693C0.201782 3.47848 1.5299 2.16763 3.16822 2.18908L4.40423 2.20526V1.21636C4.40423 0.806749 4.73626 0.479037 5.14584 0.484399ZM14.2923 3.81804L14.2923 5.30139C14.2923 5.711 14.6244 6.04741 15.034 6.05277C15.4435 6.05813 15.7756 5.73042 15.7756 5.3208L15.7756 3.83746L17.0116 3.85364C17.8307 3.86436 18.4948 4.53717 18.4948 5.3564L18.4948 8.57031L1.685 8.35026L1.685 5.13635C1.685 4.31712 2.34906 3.6617 3.16822 3.67242L4.40423 3.6886V5.17195C4.40423 5.58156 4.73626 5.91796 5.14584 5.92333C5.55542 5.92869 5.88745 5.60098 5.88745 5.19136V3.70802L14.2923 3.81804ZM1.685 9.8336L1.685 17.0031C1.685 17.8223 2.34906 18.4951 3.16822 18.5059L17.0116 18.6871C17.8307 18.6978 18.4948 18.0424 18.4948 17.2232V10.0537L1.685 9.8336Z" fill="#5531FB"/>
</svg>
