<svg width="21" height="22" viewBox="0 0 21 22" fill="none" xmlns="http://www.w3.org/2000/svg">
<path fill-rule="evenodd" clip-rule="evenodd" d="M9.00691 2.03254L8.62369 3.17727C8.30056 4.14251 7.5915 4.81998 6.84874 5.22387C6.7854 5.25831 6.72269 5.29377 6.66063 5.33021C5.93023 5.75916 4.97967 6.01826 3.97739 5.80002L2.78907 5.54127C2.58058 5.49588 2.36818 5.58864 2.26178 5.77156L1.64774 6.82715C1.54134 7.01007 1.56481 7.2421 1.706 7.40318L2.51191 8.32265C3.1883 9.09434 3.43052 10.0535 3.41702 10.9052C3.41585 10.9789 3.41585 11.0526 3.41702 11.1263C3.43051 11.9783 3.18829 12.9312 2.5119 13.6852L1.706 14.5835C1.56481 14.7409 1.54134 14.9723 1.64774 15.158L2.26178 16.2297C2.36818 16.4154 2.58058 16.5137 2.78906 16.4738L3.97731 16.2462C4.97961 16.0542 5.93018 16.3382 6.66058 16.7862C6.72266 16.8243 6.78539 16.8614 6.84874 16.8975C7.5915 17.3209 8.30056 18.0169 8.62369 18.9906L9.00691 20.1454C9.0742 20.3482 9.26313 20.4868 9.47594 20.4896L10.704 20.5057C10.9168 20.5085 11.1057 20.3748 11.173 20.1737L11.5563 19.029C11.8794 18.0638 12.5885 17.3863 13.3312 16.9824C13.3946 16.948 13.4573 16.9125 13.5194 16.876C14.2498 16.4471 15.2003 16.188 16.2026 16.4062L17.3908 16.6649C17.5993 16.7103 17.8117 16.6176 17.9181 16.4346L18.5322 15.3791C18.6386 15.1961 18.6151 14.9641 18.4739 14.803L17.668 13.8836C16.9917 13.1119 16.7494 12.1527 16.7629 11.3011C16.7641 11.2274 16.7641 11.1536 16.7629 11.0799C16.7494 10.2278 16.9916 9.27499 17.668 8.521L18.4739 7.62269C18.6151 7.4653 18.6386 7.23388 18.5322 7.04818L17.9181 5.97651C17.8117 5.79081 17.5993 5.69248 17.3908 5.73242L16.2025 5.96005C15.2003 6.15205 14.2497 5.86806 13.5193 5.41999C13.4573 5.38192 13.3945 5.34483 13.3312 5.30873C12.5885 4.8854 11.8794 4.18936 11.5563 3.21566L11.173 2.06089C11.1057 1.85811 10.9168 1.71945 10.704 1.71666L9.47594 1.70059C9.26314 1.6978 9.0742 1.83151 9.00691 2.03254ZM7.21659 2.68978C7.03638 3.22808 6.62506 3.64771 6.12718 3.91844C6.04974 3.96055 5.97308 4.00389 5.89722 4.04844C5.40806 4.33572 4.8337 4.4724 4.27475 4.35069L3.08642 4.09194C2.25247 3.91035 1.40289 4.28139 0.977275 5.01307L0.363241 6.06866C-0.0623731 6.80034 0.0314847 7.72847 0.596249 8.37281L1.40216 9.29227C1.7798 9.72312 1.94301 10.2932 1.93399 10.8623C1.93257 10.9516 1.93257 11.041 1.93399 11.1304C1.943 11.6997 1.77979 12.2655 1.40216 12.6865L0.596251 13.5848C0.0314857 14.2144 -0.062373 15.1401 0.363241 15.8829L0.977275 16.9546C1.40289 17.6974 2.25247 18.0907 3.08642 17.9309L4.27467 17.7033C4.83363 17.5962 5.40799 17.7479 5.89716 18.048C5.97304 18.0946 6.04972 18.1399 6.12718 18.1841C6.62506 18.4678 7.03638 18.8982 7.21659 19.4413L7.59981 20.596C7.86899 21.4072 8.62471 21.9618 9.47594 21.973L10.704 21.989C11.5552 22.0002 12.311 21.4653 12.5801 20.6612L12.9634 19.5165C13.1436 18.9782 13.5549 18.5586 14.0528 18.2878C14.1302 18.2457 14.2069 18.2024 14.2828 18.1578C14.772 17.8705 15.3463 17.7338 15.9053 17.8555L17.0935 18.1143C17.9274 18.2959 18.777 17.9248 19.2026 17.1931L19.8167 16.1375C20.2423 15.4059 20.1484 14.4777 19.5837 13.8334L18.7778 12.914C18.4002 12.4831 18.2369 11.913 18.246 11.344C18.2474 11.2546 18.2474 11.1652 18.246 11.0758C18.2369 10.5065 18.4001 9.94064 18.7778 9.51968L19.5837 8.62137C20.1484 7.99182 20.2423 7.06614 19.8167 6.32332L19.2026 5.25165C18.777 4.50883 17.9274 4.11555 17.0935 4.2753L15.9052 4.50293C15.3462 4.61001 14.7719 4.45829 14.2827 4.15821C14.2069 4.11168 14.1302 4.06633 14.0528 4.02219C13.5549 3.73843 13.1436 3.30802 12.9634 2.76501L12.5801 1.61024C12.311 0.799098 11.5552 0.244462 10.704 0.233319L9.47594 0.217243C8.62471 0.2061 7.86899 0.74095 7.5998 1.54504L7.21659 2.68978Z" fill="#1FB9FC"/>
</svg>
