<svg width="50" height="50" viewBox="0 0 50 50" fill="none" xmlns="http://www.w3.org/2000/svg">
<rect opacity="0.1" y="1.52588e-05" width="50" height="50" rx="9.83947" fill="#FA5F1C"/>
<path fill-rule="evenodd" clip-rule="evenodd" d="M33.6089 23.842L30.6876 21.1944L26.7681 31.5827L33.6089 23.842ZM26.6322 26.7394L29.4377 19.3071C29.4377 19.3053 29.4386 19.3035 29.4396 19.3016L30.1522 17.4135L26.6322 16.0516V26.7394ZM25.015 31.0271H19.6169L24.3271 32.8501L25.015 31.0271ZM24.0139 34.6987L18.9768 32.749L22.731 36.1506L24.0139 34.6987ZM15.612 29.1904H24.7955V12.6601H15.612V29.1904ZM35.5861 24.3783L23.4914 38.0635C23.3289 38.2481 23.0993 38.3592 22.8541 38.3721C22.8376 38.373 22.8201 38.3739 22.8027 38.3739C22.5758 38.3739 22.3554 38.2894 22.1864 38.1361L14.0774 30.7874C14.0737 30.7847 14.0728 30.7801 14.0682 30.7764C14.0636 30.7718 14.0572 30.7691 14.0535 30.7645C13.9993 30.7112 13.9644 30.6451 13.924 30.5808C13.9038 30.5478 13.8745 30.5193 13.8588 30.4853C13.857 30.4807 13.8542 30.4789 13.8533 30.4752C13.8331 30.4302 13.8322 30.3779 13.8203 30.3301C13.8184 30.3246 13.8175 30.3182 13.8157 30.3117C13.8028 30.2548 13.7799 30.2015 13.778 30.1437C13.7771 30.1363 13.778 30.129 13.778 30.1216C13.778 30.117 13.7753 30.1134 13.7753 30.1088V11.7418C13.7753 11.2339 14.1867 10.8234 14.6936 10.8234H25.7138C26.2217 10.8234 26.6322 11.2339 26.6322 11.7418V14.0817L31.6638 16.0286C32.1349 16.2105 32.37 16.7385 32.1919 17.2096L31.3856 19.3466L35.5145 23.0898C35.8864 23.4278 35.9185 24.0018 35.5861 24.3783ZM19.2854 19.5478C19.2854 19.8012 19.4911 20.0069 19.7445 20.0069H20.6629C21.9293 20.0069 22.9588 21.0364 22.9588 22.3028C22.9588 23.4122 22.169 24.3388 21.1221 24.5518V25.517C21.1221 26.0249 20.7116 26.4354 20.2037 26.4354C19.6968 26.4354 19.2854 26.0249 19.2854 25.517V24.5987H18.367C17.8601 24.5987 17.4487 24.1882 17.4487 23.6803C17.4487 23.1725 17.8601 22.762 18.367 22.762H20.6638C20.9164 22.762 21.1221 22.5563 21.1221 22.3028C21.1221 22.0503 20.9164 21.8436 20.6629 21.8436H19.7445C18.479 21.8436 17.4487 20.8142 17.4487 19.5478C17.4487 18.4384 18.2394 17.5118 19.2854 17.2987V16.3335C19.2854 15.8257 19.6968 15.4152 20.2037 15.4152C20.7116 15.4152 21.1221 15.8257 21.1221 16.3335V17.2519H22.0404C22.5483 17.2519 22.9588 17.6624 22.9588 18.1702C22.9588 18.6781 22.5483 19.0886 22.0404 19.0886H19.7445C19.4911 19.0886 19.2854 19.2952 19.2854 19.5478Z" fill="#FA5F1C"/>
</svg>
