<svg width="50" height="50" viewBox="0 0 50 50" fill="none" xmlns="http://www.w3.org/2000/svg">
<rect opacity="0.1" width="50" height="50" rx="9.83947" fill="#427A0A"/>
<path fill-rule="evenodd" clip-rule="evenodd" d="M15.4152 36.5372H17.2519V27.3537H15.4152V36.5372ZM18.1702 38.3739H14.4968C13.989 38.3739 13.5785 37.9634 13.5785 37.4556V26.4354C13.5785 25.9275 13.989 25.517 14.4968 25.517H18.1702C18.6781 25.517 19.0886 25.9275 19.0886 26.4354V37.4556C19.0886 37.9634 18.6781 38.3739 18.1702 38.3739Z" fill="#427A0A"/>
<path fill-rule="evenodd" clip-rule="evenodd" d="M23.6803 36.5372H25.517V20.0069H23.6803V36.5372ZM26.4353 38.3739H22.7619C22.2541 38.3739 21.8436 37.9634 21.8436 37.4556V19.0886C21.8436 18.5807 22.2541 18.1702 22.7619 18.1702H26.4353C26.9432 18.1702 27.3537 18.5807 27.3537 19.0886V37.4556C27.3537 37.9634 26.9432 38.3739 26.4353 38.3739Z" fill="#427A0A"/>
<path fill-rule="evenodd" clip-rule="evenodd" d="M31.9454 36.5372H33.7821V12.6601H31.9454V36.5372ZM34.7005 38.3739H31.0271C30.5192 38.3739 30.1087 37.9634 30.1087 37.4556V11.7418C30.1087 11.2339 30.5192 10.8234 31.0271 10.8234H34.7005C35.2083 10.8234 35.6188 11.2339 35.6188 11.7418V37.4556C35.6188 37.9634 35.2083 38.3739 34.7005 38.3739Z" fill="#427A0A"/>
</svg>
