<svg width="16" height="17" viewBox="0 0 16 17" fill="none" xmlns="http://www.w3.org/2000/svg">
<g clip-path="url(#clip0_114_159)">
<path d="M8.32334 10.9153L9.64175 9.61407L8.70963 8.66967L7.39122 9.97094L6.34572 8.91166L7.66413 7.61039L6.73201 6.66599L5.4136 7.96726L4.53751 7.08029C4.41389 6.95508 4.24625 6.88345 4.07145 6.88116C3.89665 6.87888 3.72901 6.94611 3.60539 7.06809L2.61658 8.04404C1.95536 8.69579 1.54982 9.56404 1.47209 10.4943C1.39435 11.4247 1.64947 12.3567 2.19205 13.1247L0.333084 14.9595C0.270123 15.0195 0.219903 15.0916 0.185355 15.1716C0.150806 15.2515 0.132621 15.3378 0.131861 15.4253C0.1311 15.5129 0.147779 15.5999 0.180925 15.6813C0.21407 15.7628 0.263019 15.837 0.324913 15.8998C0.386808 15.9625 0.46041 16.0124 0.541424 16.0466C0.622438 16.0808 0.709242 16.0986 0.796772 16.099C0.884301 16.0994 0.970802 16.0823 1.05123 16.0488C1.13165 16.0153 1.20439 15.9661 1.2652 15.9039L3.12417 14.0691C3.88513 14.6218 4.81395 14.8891 5.74534 14.8234C6.67674 14.7577 7.55031 14.3634 8.21061 13.7105L9.19943 12.7345C9.32301 12.6125 9.39243 12.4458 9.39243 12.2709C9.39243 12.0961 9.32301 11.9276 9.19943 11.8023L8.32334 10.9153Z" fill="white"/>
<path d="M11.5633 9.46915C11.6869 9.59436 11.8546 9.66599 12.0294 9.66827C12.2042 9.67056 12.3718 9.60333 12.4954 9.48135L13.4842 8.5054C14.1454 7.85365 14.551 6.9854 14.6287 6.0551C14.7065 5.12479 14.4513 4.19274 13.9088 3.42474L15.7677 1.58995C15.8307 1.52996 15.8809 1.45787 15.9155 1.37789C15.95 1.29791 15.9682 1.21164 15.9689 1.12411C15.9697 1.03658 15.953 0.949554 15.9199 0.868099C15.8867 0.786644 15.8378 0.712395 15.7759 0.649685C15.714 0.586975 15.6404 0.537059 15.5594 0.50285C15.4784 0.468641 15.3916 0.450824 15.304 0.450439C15.2165 0.450054 15.13 0.467108 15.0496 0.500606C14.9692 0.534105 14.8964 0.583377 14.8356 0.645547L12.9766 2.48034C12.2157 1.92765 11.2869 1.66036 10.3555 1.72604C9.42407 1.79171 8.5505 2.18608 7.89019 2.83898L6.90138 3.81493C6.7778 3.93694 6.70837 4.10369 6.70837 4.2785C6.70837 4.45331 6.7778 4.62188 6.90138 4.74713L11.5633 9.46915Z" fill="white"/>
</g>
<defs>
<clipPath id="clip0_114_159">
<rect width="15.8223" height="15.8223" fill="white" transform="matrix(0.999914 0.0130896 0 1 0.139648 0.260254)"/>
</clipPath>
</defs>
</svg>
