<svg width="25" height="25" viewBox="0 0 25 25" fill="none" xmlns="http://www.w3.org/2000/svg">
<g opacity="0.6">
<path fill-rule="evenodd" clip-rule="evenodd" d="M5.67566 5.01124C4.03735 4.9898 2.70923 6.30065 2.70923 7.9391L2.70923 15.8503C2.70923 17.4888 4.03735 18.8343 5.67566 18.8558L19.519 19.037C21.1574 19.0585 22.4855 17.7477 22.4855 16.1092L22.4855 8.19798C22.4855 6.55953 21.1574 5.21391 19.519 5.19246L5.67566 5.01124ZM7.65304 7.01489L5.67542 6.989C5.12931 6.98185 4.6866 7.41881 4.6866 7.96496L4.6866 8.95385L7.65304 8.99268V7.01489ZM9.63113 7.04079V9.01858L20.5081 9.16097V8.17207C20.5081 7.62591 20.0654 7.17738 19.5192 7.17023L9.63113 7.04079ZM7.6533 10.9704L4.68687 10.9316L4.68687 12.9094L7.6533 12.9482L7.6533 10.9704ZM9.63083 12.9741L9.63083 10.9963L20.5078 11.1387V13.1165L9.63083 12.9741ZM7.653 14.9259L4.68657 14.8871V15.876C4.68657 16.4222 5.12928 16.8707 5.67538 16.8778L7.653 16.9037V14.9259ZM9.63109 16.9296V14.9518L20.508 15.0942V16.0831C20.508 16.6293 20.0653 17.0662 19.5192 17.0591L9.63109 16.9296Z" fill="#1B1C31"/>
</g>
</svg>
